<svg width="160" height="160" viewBox="0 0 160 160" fill="none" xmlns="http://www.w3.org/2000/svg">
<g clip-path="url(#clip0_1373_39)">
<rect width="160" height="160" rx="25" fill="url(#paint0_linear_1373_39)"/>
<circle cx="37.5" cy="122.5" r="5.66667" stroke="white" stroke-width="5.66667"/>
<circle cx="77.167" cy="122.5" r="5.66667" stroke="white" stroke-width="5.66667"/>
<circle cx="122.5" cy="122.5" r="5.66667" stroke="white" stroke-width="5.66667"/>
<circle cx="43.1665" cy="37.5" r="5.66667" stroke="white" stroke-width="5.66667"/>
<circle cx="122.5" cy="48.833" r="5.66667" stroke="white" stroke-width="5.66667"/>
<circle cx="45.9998" cy="85.6668" r="8.5" stroke="white" stroke-width="5.66667"/>
<circle cx="108.333" cy="96.9998" r="8.5" stroke="white" stroke-width="5.66667"/>
<circle cx="80.0005" cy="62.9995" r="14.1667" stroke="white" stroke-width="5.66667"/>
<path d="M116.834 48.833L91.3338 54.4997M88.5005 74.333L102.667 88.4997M114 105.5L119.667 116.833M82.8338 119.666L99.8338 102.666M37.5005 116.833L43.1672 94.1663M51.6672 94.1663L71.5005 116.833M43.1672 43.1663L46.0005 77.1663M54.5005 79.9997L65.8338 71.4997M48.8338 40.333L68.6672 51.6663" stroke="white" stroke-width="5.66667" stroke-linecap="round"/>
</g>
<defs>
<linearGradient id="paint0_linear_1373_39" x1="80" y1="0" x2="80" y2="160" gradientUnits="userSpaceOnUse">
<stop/>
<stop offset="1"/>
</linearGradient>
<clipPath id="clip0_1373_39">
<rect width="160" height="160" fill="white"/>
</clipPath>
</defs>
</svg>
